<svg xmlns="http://www.w3.org/2000/svg" viewBox="0 0 512 512" role="img">
	<defs>
		<linearGradient id="bg" x1="64" y1="32" x2="448" y2="480" gradientUnits="userSpaceOnUse">
			<stop stop-color="#111C3D"/>
			<stop offset="1" stop-color="#080D22"/>
		</linearGradient>

		<linearGradient id="accent" x1="128" y1="96" x2="396" y2="414" gradientUnits="userSpaceOnUse">
			<stop stop-color="#62E8FF"/>
			<stop offset="0.52" stop-color="#6D9CFF"/>
			<stop offset="1" stop-color="#B875FF"/>
		</linearGradient>

		<linearGradient id="face" x1="176" y1="128" x2="342" y2="390" gradientUnits="userSpaceOnUse">
			<stop stop-color="#FFFFFF"/>
			<stop offset="1" stop-color="#AFC7FF"/>
		</linearGradient>

		<filter id="glow" x="-40%" y="-60%" width="180%" height="220%">
			<feGaussianBlur stdDeviation="8" result="blur"/>
			<feMerge>
				<feMergeNode in="blur"/>
				<feMergeNode in="SourceGraphic"/>
			</feMerge>
		</filter>
	</defs>

	<rect width="512" height="512" rx="116" fill="url(#bg)"/>

	<g fill="none" stroke="url(#accent)" stroke-width="20" stroke-linecap="round" stroke-linejoin="round">
		<path d="M154 106H116a22 22 0 0 0-22 22v38"/>
		<path d="M358 106h38a22 22 0 0 1 22 22v38"/>
		<path d="M94 346v38a22 22 0 0 0 22 22h38"/>
		<path d="M418 346v38a22 22 0 0 1-22 22h-38"/>
	</g>

	<path
		d="M256 126c-71 0-119 51-119 123v28c0 83 49 142 119 142s119-59 119-142v-28c0-72-48-123-119-123Z"
		fill="none"
		stroke="url(#face)"
		stroke-width="16"
		stroke-linecap="round"
	/>

	<g fill="url(#accent)" filter="url(#glow)">
		<circle cx="207" cy="248" r="13"/>
		<circle cx="305" cy="248" r="13"/>
	</g>

	<path
		d="M256 245v54l-20 19"
		fill="none"
		stroke="url(#face)"
		stroke-width="13"
		stroke-linecap="round"
		stroke-linejoin="round"
	/>

	<path
		d="M211 341c25 22 65 22 90 0"
		fill="none"
		stroke="url(#accent)"
		stroke-width="15"
		stroke-linecap="round"
	/>

	<path
		d="M127 204h258"
		fill="none"
		stroke="#62E8FF"
		stroke-opacity=".2"
		stroke-width="6"
		stroke-linecap="round"
	/>
</svg>